<svg width="16" height="16" viewBox="0 0 16 16" fill="none" xmlns="http://www.w3.org/2000/svg">
<g clip-path="url(#clip0_1_6)">
<path d="M8 0C7.74219 0 7.48828 0.0976562 7.29297 0.292969L5.58594 2H3C2.44922 2 2 2.44922 2 3V5.58594L0.292969 7.29297C-0.0976563 7.68359 -0.0976563 8.31641 0.292969 8.70703L2 10.4141V13C2 13.5508 2.44922 14 3 14H5.58594L7.29297 15.707C7.68359 16.0977 8.31641 16.0977 8.70703 15.707L10.4141 14H13C13.5508 14 14 13.5508 14 13V10.4141L15.707 8.70703C16.0977 8.31641 16.0977 7.68359 15.707 7.29297L14 5.58594V3C14 2.44922 13.5508 2 13 2H10.4141L8.70703 0.292969C8.51172 0.0976562 8.25781 0 8 0ZM8 9.5L11 5L12.5 6L8.5 12L7 11L4 9L5 7.5L8 9.5Z" fill="#D40000"/>
</g>
<defs>
<clipPath id="clip0_1_6">
<rect width="16" height="16" fill="white"/>
</clipPath>
</defs>
</svg>
